<svg xmlns="http://www.w3.org/2000/svg" xmlns:xlink="http://www.w3.org/1999/xlink" version="1.1" width="256" height="256" viewBox="0 0 256 256" xml:space="preserve">

<defs>
</defs>
<g style="stroke: none; stroke-width: 0; stroke-dasharray: none; stroke-linecap: butt; stroke-linejoin: miter; stroke-miterlimit: 10; fill: none; fill-rule: nonzero; opacity: 1;" transform="translate(1.4065934065934016 1.4065934065934016) scale(2.81 2.81)" >
	<path d="M 24.342 65.261 H 8.063 c -0.557 0 -1.009 -0.451 -1.009 -1.009 c 0 -0.558 0.452 -1.009 1.009 -1.009 h 16.279 c 0.557 0 1.009 0.451 1.009 1.009 C 25.351 64.81 24.899 65.261 24.342 65.261 z" style="stroke: none; stroke-width: 1; stroke-dasharray: none; stroke-linecap: butt; stroke-linejoin: miter; stroke-miterlimit: 10; fill: rgb(0,0,0); fill-rule: nonzero; opacity: 1;" transform=" matrix(1 0 0 1 0 0) " stroke-linecap="round" />
	<path d="M 24.77 57.374 H 1.009 C 0.452 57.374 0 56.923 0 56.365 c 0 -0.557 0.452 -1.009 1.009 -1.009 H 24.77 c 0.557 0 1.009 0.452 1.009 1.009 C 25.779 56.923 25.327 57.374 24.77 57.374 z" style="stroke: none; stroke-width: 1; stroke-dasharray: none; stroke-linecap: butt; stroke-linejoin: miter; stroke-miterlimit: 10; fill: rgb(0,0,0); fill-rule: nonzero; opacity: 1;" transform=" matrix(1 0 0 1 0 0) " stroke-linecap="round" />
	<path d="M 14.65 49.487 H 1.009 C 0.452 49.487 0 49.036 0 48.478 c 0 -0.557 0.452 -1.009 1.009 -1.009 H 14.65 c 0.557 0 1.009 0.452 1.009 1.009 C 15.659 49.036 15.207 49.487 14.65 49.487 z" style="stroke: none; stroke-width: 1; stroke-dasharray: none; stroke-linecap: butt; stroke-linejoin: miter; stroke-miterlimit: 10; fill: rgb(0,0,0); fill-rule: nonzero; opacity: 1;" transform=" matrix(1 0 0 1 0 0) " stroke-linecap="round" />
	<path d="M 14.65 41.6 H 8.063 c -0.557 0 -1.009 -0.452 -1.009 -1.009 c 0 -0.557 0.452 -1.009 1.009 -1.009 h 6.587 c 0.557 0 1.009 0.452 1.009 1.009 C 15.659 41.148 15.207 41.6 14.65 41.6 z" style="stroke: none; stroke-width: 1; stroke-dasharray: none; stroke-linecap: butt; stroke-linejoin: miter; stroke-miterlimit: 10; fill: rgb(0,0,0); fill-rule: nonzero; opacity: 1;" transform=" matrix(1 0 0 1 0 0) " stroke-linecap="round" />
	<path d="M 44.983 52.424 H 25.049 c -2.364 0 -4.288 -1.924 -4.288 -4.289 V 37.088 c 0 -2.364 1.924 -4.288 4.288 -4.288 h 15.646 c 2.364 0 4.288 1.924 4.288 4.288 V 52.424 z M 25.049 34.796 c -1.264 0 -2.293 1.029 -2.293 2.293 v 11.046 c 0 1.265 1.029 2.294 2.293 2.294 h 17.939 v -13.34 c 0 -1.264 -1.029 -2.293 -2.293 -2.293 H 25.049 z" style="stroke: none; stroke-width: 1; stroke-dasharray: none; stroke-linecap: butt; stroke-linejoin: miter; stroke-miterlimit: 10; fill: rgb(0,0,0); fill-rule: nonzero; opacity: 1;" transform=" matrix(1 0 0 1 0 0) " stroke-linecap="round" />
	<path d="M 77.874 46.638 h -0.539 c -2.738 0 -4.967 -2.228 -4.967 -4.966 c 0 -2.739 2.229 -4.967 4.967 -4.967 h 0.539 c 1.204 0 2.185 0.98 2.185 2.185 v 5.563 C 80.059 45.657 79.079 46.638 77.874 46.638 z M 77.335 38.701 c -1.638 0 -2.971 1.333 -2.971 2.971 c 0 1.638 1.333 2.971 2.971 2.971 h 0.539 c 0.104 0 0.189 -0.085 0.189 -0.189 V 38.89 c 0 -0.104 -0.085 -0.189 -0.189 -0.189 H 77.335 z" style="stroke: none; stroke-width: 1; stroke-dasharray: none; stroke-linecap: butt; stroke-linejoin: miter; stroke-miterlimit: 10; fill: rgb(0,0,0); fill-rule: nonzero; opacity: 1;" transform=" matrix(1 0 0 1 0 0) " stroke-linecap="round" />
	<path d="M 72.705 70.122 c -0.034 0 -0.069 -0.002 -0.103 -0.006 c -0.37 -0.038 -0.687 -0.279 -0.824 -0.625 c -0.932 -2.349 -0.905 -4.925 0.074 -7.251 c 0.994 -2.358 2.847 -4.188 5.217 -5.153 c 2.372 -0.964 4.975 -0.949 7.334 0.045 c 2.578 1.086 4.547 3.245 5.401 5.923 c 0.114 0.354 0.02 0.742 -0.242 1.006 c -0.261 0.264 -0.647 0.361 -1.004 0.25 c -5.6 -1.734 -11.778 0.473 -15.022 5.364 C 73.35 69.957 73.037 70.122 72.705 70.122 z M 80.69 58.378 c -2.961 0 -5.779 1.743 -6.999 4.639 c -0.524 1.244 -0.704 2.579 -0.537 3.89 c 3.47 -3.918 8.779 -5.82 13.943 -4.981 c -0.82 -1.308 -2.024 -2.343 -3.471 -2.953 C 82.667 58.569 81.672 58.378 80.69 58.378 z" style="stroke: none; stroke-width: 1; stroke-dasharray: none; stroke-linecap: butt; stroke-linejoin: miter; stroke-miterlimit: 10; fill: rgb(0,0,0); fill-rule: nonzero; opacity: 1;" transform=" matrix(1 0 0 1 0 0) " stroke-linecap="round" />
	<path d="M 58.685 31.156 c -4.865 0 -9.446 -6.178 -9.446 -10.966 c 0 -2.383 1.227 -6.382 9.446 -6.382 c 4.783 0 8.674 3.891 8.674 8.674 S 63.468 31.156 58.685 31.156 z M 58.685 15.803 c -4.944 0 -7.45 1.476 -7.45 4.386 c 0 3.706 3.853 8.971 7.45 8.971 c 3.682 0 6.679 -2.996 6.679 -6.678 S 62.367 15.803 58.685 15.803 z" style="stroke: none; stroke-width: 1; stroke-dasharray: none; stroke-linecap: butt; stroke-linejoin: miter; stroke-miterlimit: 10; fill: rgb(0,0,0); fill-rule: nonzero; opacity: 1;" transform=" matrix(1 0 0 1 0 0) " stroke-linecap="round" />
	<path d="M 59.367 31.173 l -1.889 -6.443 c -0.274 -0.935 -0.036 -1.916 0.635 -2.622 c 0.673 -0.706 1.643 -0.989 2.588 -0.765 l 6.693 1.607 l -0.146 0.913 c -0.58 3.619 -3.392 6.492 -6.997 7.149 L 59.367 31.173 z M 60.062 23.262 c -0.26 0 -0.433 0.148 -0.503 0.221 c -0.085 0.088 -0.269 0.333 -0.166 0.685 l 1.366 4.661 c 2.061 -0.671 3.675 -2.314 4.31 -4.385 l -4.834 -1.161 C 60.174 23.269 60.115 23.262 60.062 23.262 z" style="stroke: none; stroke-width: 1; stroke-dasharray: none; stroke-linecap: butt; stroke-linejoin: miter; stroke-miterlimit: 10; fill: rgb(0,0,0); fill-rule: nonzero; opacity: 1;" transform=" matrix(1 0 0 1 0 0) " stroke-linecap="round" />
	<path d="M 70.875 41.508 c -0.231 0 -0.463 -0.05 -0.681 -0.151 c -0.781 -0.362 -1.72 -0.57 -2.876 -0.639 c -0.527 -0.031 -0.938 -0.468 -0.938 -0.996 v -3.441 c 0 -0.551 0.446 -0.998 0.998 -0.998 h 2.058 c 1.675 0 3.037 1.362 3.037 3.037 v 1.593 c 0 0.546 -0.274 1.047 -0.733 1.341 C 71.477 41.423 71.177 41.508 70.875 41.508 z M 68.376 38.815 c 0.773 0.1 1.468 0.267 2.102 0.501 v -0.995 c 0 -0.574 -0.468 -1.041 -1.042 -1.041 h -1.06 V 38.815 z" style="stroke: none; stroke-width: 1; stroke-dasharray: none; stroke-linecap: butt; stroke-linejoin: miter; stroke-miterlimit: 10; fill: rgb(0,0,0); fill-rule: nonzero; opacity: 1;" transform=" matrix(1 0 0 1 0 0) " stroke-linecap="round" />
	<path d="M 54.901 46.866 c -0.149 0 -0.299 -0.033 -0.438 -0.101 c -0.927 -0.452 -1.924 -0.682 -2.965 -0.682 h -7.513 c -0.551 0 -0.998 -0.447 -0.998 -0.998 V 40.77 c 0 -6.643 5.405 -12.057 12.048 -12.068 c 3.748 0 6.846 2.985 7.86 5.793 c 0.171 0.472 0.613 0.788 1.101 0.788 h 3.381 c 0.552 0 0.998 0.447 0.998 0.998 v 3.649 c 0 1.688 -1.373 3.061 -3.061 3.061 h -4.468 c -1.021 0 -1.986 -0.248 -2.837 -0.686 c -1.424 1.229 -2.134 2.42 -2.112 3.543 c 0.007 0.347 -0.168 0.673 -0.461 0.86 C 55.275 46.813 55.088 46.866 54.901 46.866 z M 44.983 44.087 h 6.515 c 0.892 0 1.759 0.131 2.593 0.389 c 0.33 -1.151 1.095 -2.284 2.286 -3.386 c -1.079 -1.119 -1.743 -2.639 -1.743 -4.312 c 0 -0.551 0.446 -0.998 0.998 -0.998 s 0.998 0.447 0.998 0.998 c 0 2.325 1.892 4.218 4.217 4.218 h 4.468 c 0.588 0 1.065 -0.478 1.065 -1.065 v -2.651 h -2.383 c -1.326 0 -2.524 -0.847 -2.978 -2.107 c -0.67 -1.858 -2.97 -4.475 -5.981 -4.475 c -5.544 0.009 -10.054 4.528 -10.054 10.072 V 44.087 z" style="stroke: none; stroke-width: 1; stroke-dasharray: none; stroke-linecap: butt; stroke-linejoin: miter; stroke-miterlimit: 10; fill: rgb(0,0,0); fill-rule: nonzero; opacity: 1;" transform=" matrix(1 0 0 1 0 0) " stroke-linecap="round" />
	<path d="M 59.272 61.939 H 54.95 c -2.015 0 -3.655 -1.64 -3.655 -3.655 v -2.541 c 0 -1.83 -1.489 -3.319 -3.32 -3.319 h -3.989 c -0.551 0 -0.998 -0.446 -0.998 -0.998 v -6.341 c 0 -0.551 0.447 -0.998 0.998 -0.998 h 7.513 c 4.837 0 8.772 3.935 8.772 8.771 v 8.083 C 60.27 61.493 59.824 61.939 59.272 61.939 z M 44.983 50.428 h 2.991 c 2.931 0 5.315 2.384 5.315 5.315 v 2.541 c 0 0.915 0.744 1.659 1.659 1.659 h 3.325 v -7.085 c 0 -3.736 -3.04 -6.776 -6.776 -6.776 h -6.515 V 50.428 z" style="stroke: none; stroke-width: 1; stroke-dasharray: none; stroke-linecap: butt; stroke-linejoin: miter; stroke-miterlimit: 10; fill: rgb(0,0,0); fill-rule: nonzero; opacity: 1;" transform=" matrix(1 0 0 1 0 0) " stroke-linecap="round" />
	<path d="M 43.232 72.36 c -2.694 0 -4.886 -2.192 -4.886 -4.887 c 0 -0.357 0.045 -0.723 0.139 -1.121 l 1.942 0.458 c -0.057 0.246 -0.086 0.462 -0.086 0.663 c 0 1.594 1.297 2.891 2.891 2.891 s 2.891 -1.297 2.891 -2.891 c 0 -0.201 -0.028 -0.417 -0.086 -0.662 l 1.941 -0.46 c 0.095 0.397 0.14 0.764 0.14 1.122 C 48.118 70.167 45.927 72.36 43.232 72.36 z" style="stroke: none; stroke-width: 1; stroke-dasharray: none; stroke-linecap: butt; stroke-linejoin: miter; stroke-miterlimit: 10; fill: rgb(0,0,0); fill-rule: nonzero; opacity: 1;" transform=" matrix(1 0 0 1 0 0) " stroke-linecap="round" />
	<path d="M 43.232 76.192 c -4.807 0 -8.719 -3.911 -8.719 -8.719 c 0 -0.34 0.024 -0.674 0.062 -1.006 l 1.983 0.228 c -0.03 0.255 -0.049 0.514 -0.049 0.778 c 0 3.708 3.016 6.724 6.723 6.724 s 6.723 -3.016 6.723 -6.724 c 0 -0.263 -0.019 -0.521 -0.049 -0.777 l 1.982 -0.23 c 0.039 0.331 0.062 0.666 0.062 1.007 C 51.951 72.281 48.039 76.192 43.232 76.192 z" style="stroke: none; stroke-width: 1; stroke-dasharray: none; stroke-linecap: butt; stroke-linejoin: miter; stroke-miterlimit: 10; fill: rgb(0,0,0); fill-rule: nonzero; opacity: 1;" transform=" matrix(1 0 0 1 0 0) " stroke-linecap="round" />
	<path d="M 81.281 76.192 c -4.593 0 -8.411 -3.593 -8.692 -8.179 l 1.992 -0.123 c 0.216 3.536 3.16 6.306 6.7 6.306 c 3.708 0 6.724 -3.016 6.724 -6.724 c 0 -1.388 -0.425 -2.724 -1.228 -3.864 l 1.631 -1.15 C 89.449 63.938 90 65.671 90 67.473 C 90 72.281 86.089 76.192 81.281 76.192 z" style="stroke: none; stroke-width: 1; stroke-dasharray: none; stroke-linecap: butt; stroke-linejoin: miter; stroke-miterlimit: 10; fill: rgb(0,0,0); fill-rule: nonzero; opacity: 1;" transform=" matrix(1 0 0 1 0 0) " stroke-linecap="round" />
	<path d="M 81.281 72.36 c -2.694 0 -4.886 -2.192 -4.886 -4.887 s 2.191 -4.886 4.886 -4.886 s 4.887 2.191 4.887 4.886 S 83.975 72.36 81.281 72.36 z M 81.281 64.583 c -1.593 0 -2.89 1.297 -2.89 2.89 c 0 1.594 1.297 2.891 2.89 2.891 c 1.594 0 2.891 -1.297 2.891 -2.891 C 84.172 65.88 82.875 64.583 81.281 64.583 z" style="stroke: none; stroke-width: 1; stroke-dasharray: none; stroke-linecap: butt; stroke-linejoin: miter; stroke-miterlimit: 10; fill: rgb(0,0,0); fill-rule: nonzero; opacity: 1;" transform=" matrix(1 0 0 1 0 0) " stroke-linecap="round" />
	<path d="M 73.202 67.579 h -40.58 c -1.143 0 -2.215 -0.56 -2.868 -1.5 c -0.653 -0.939 -0.804 -2.14 -0.405 -3.212 l 1.929 -5.185 c 1.615 -4.339 5.811 -7.255 10.441 -7.255 h 6.257 c 2.931 0 5.315 2.384 5.315 5.315 v 2.541 c 0 0.915 0.744 1.659 1.659 1.659 h 12.403 c 0.575 0 1.114 -0.254 1.477 -0.699 c 0.372 -0.452 0.516 -1.039 0.395 -1.611 l -3.402 -16.07 l 1.953 -0.413 l 3.402 16.07 c 0.248 1.169 -0.046 2.369 -0.805 3.292 c -0.744 0.906 -1.845 1.427 -3.02 1.427 H 54.95 c -2.015 0 -3.655 -1.64 -3.655 -3.655 v -2.541 c 0 -1.83 -1.489 -3.319 -3.32 -3.319 h -6.257 c -3.801 0 -7.245 2.393 -8.571 5.955 l -1.929 5.185 c -0.173 0.467 -0.11 0.969 0.174 1.377 c 0.284 0.409 0.732 0.643 1.229 0.643 h 38.489 c 0.041 -1.15 0.289 -2.269 0.741 -3.342 c 1.415 -3.355 4.617 -5.577 8.157 -5.829 l -9.4 -16.486 l 1.734 -0.988 l 11.263 19.755 l -1.98 -0.249 c -3.356 -0.428 -6.622 1.457 -7.935 4.574 c -0.468 1.109 -0.659 2.283 -0.569 3.49 L 73.202 67.579 z" style="stroke: none; stroke-width: 1; stroke-dasharray: none; stroke-linecap: butt; stroke-linejoin: miter; stroke-miterlimit: 10; fill: rgb(0,0,0); fill-rule: nonzero; opacity: 1;" transform=" matrix(1 0 0 1 0 0) " stroke-linecap="round" />
</g>
</svg>